<?xml version="1.0" encoding="iso-8859-1"?>
<!-- Uploaded to: SVG Repo, www.svgrepo.com, Generator: SVG Repo Mixer Tools -->
<svg version="1.1" id="Layer_1" xmlns="http://www.w3.org/2000/svg" xmlns:xlink="http://www.w3.org/1999/xlink" 
	 viewBox="0 0 301 301" xml:space="preserve">
<path style="fill:#7EA9C8;" d="M21.189,131.346V13.865c0-6.69,5.423-12.113,12.113-12.113h82.246
	c16.029,0,29.023,12.994,29.023,29.023v100.571L21.189,131.346L21.189,131.346z"/>
<path style="fill:#FAD0B0;" d="M44.649,104.705V24.394h58.475c9.933,0,17.986,8.052,17.986,17.986v62.325H44.649z"/>
<rect x="44.649" y="24.394" style="fill:#EBC5A7;" width="38.23" height="80.311"/>
<path style="fill:#E27879;" d="M196.938,134.169V80.05c0-9.697,7.861-17.558,17.558-17.558h3.729
	c9.697,0,17.558,7.861,17.558,17.558v54.119H196.938z"/>
<path style="fill:#C76B6B;" d="M196.938,134.169V80.05c0-9.697,7.861-17.558,17.558-17.558h1.865v71.678h-19.423V134.169z"/>
<path style="fill:#91C8F5;" d="M301,252.639H0V101.3h259.501c22.919,0,41.499,18.58,41.499,41.499V252.639z"/>
<rect y="101.299" style="fill:#89B9DB;" width="155.604" height="151.34"/>
<circle style="fill:#80635B;" cx="76.59" cy="243.846" r="55.401"/>
<path style="fill:#68514A;" d="M76.59,299.247c-30.597,0-55.401-24.804-55.401-55.401s24.804-55.401,55.401-55.401V299.247z"/>
<circle style="fill:#A47D73;" cx="76.59" cy="243.846" r="43.599"/>
<path style="fill:#8A6A61;" d="M76.59,287.445c-24.079,0-43.599-19.52-43.599-43.599s19.52-43.599,43.599-43.599V287.445z"/>
<circle style="fill:#80635B;" cx="225.59" cy="243.846" r="55.401"/>
<path style="fill:#68514A;" d="M225.59,299.247c-30.597,0-55.401-24.804-55.401-55.401s24.804-55.401,55.401-55.401V299.247z"/>
<circle style="fill:#A47D73;" cx="225.59" cy="243.846" r="43.599"/>
<path style="fill:#8A6A61;" d="M225.59,287.445c-24.079,0-43.599-19.52-43.599-43.599s19.52-43.599,43.599-43.599V287.445z"/>
<path style="fill:#E27879;" d="M225.783,253.846H77.098c-5.523,0-10-4.477-10-10l0,0c0-5.523,4.477-10,10-10h148.685
	c5.523,0,10,4.477,10,10l0,0C235.783,249.369,231.306,253.846,225.783,253.846z"/>
</svg>