<svg data-name="コンポーネント 12" xmlns="http://www.w3.org/2000/svg" width="56.826" height="56.826"><path data-name="パス 59" d="M28.413 0A28.413 28.413 0 1 1 0 28.413 28.413 28.413 0 0 1 28.413 0Z" fill="#fd5785"/><g data-name="グループ 2975"><path data-name="合体 6" d="M28.248 43.935h-.024a3.384 3.384 0 0 1-2.081-.778c-1.094-.771-14.73-10.246-14.714-19.668.018-9.389 10.926-13.823 16.819-5.339 5.893-8.484 16.8-4.051 16.817 5.339.018 9.422-13.619 18.9-14.712 19.665a3.387 3.387 0 0 1-2.081.778h-.024Z" fill="#fff" opacity=".9"/></g></svg>